<?xml version="1.0" encoding="UTF-8" standalone="no"?>
<!-- Created with Inkscape (http://www.inkscape.org/) -->

<svg
   width="82.272072mm"
   height="67.740997mm"
   viewBox="0 0 82.272072 67.740997"
   version="1.1"
   id="svg5"
   inkscape:version="1.1.1 (3bf5ae0d25, 2021-09-20, custom)"
   sodipodi:docname="a1s_audiokit.svg"
   xmlns:inkscape="http://www.inkscape.org/namespaces/inkscape"
   xmlns:sodipodi="http://sodipodi.sourceforge.net/DTD/sodipodi-0.dtd"
   xmlns="http://www.w3.org/2000/svg"
   xmlns:svg="http://www.w3.org/2000/svg">
  <sodipodi:namedview
     id="namedview7"
     pagecolor="#ffffff"
     bordercolor="#666666"
     borderopacity="1.0"
     inkscape:pageshadow="2"
     inkscape:pageopacity="0.0"
     inkscape:pagecheckerboard="0"
     inkscape:document-units="mm"
     showgrid="false"
     fit-margin-top="0"
     fit-margin-left="0"
     fit-margin-right="0"
     fit-margin-bottom="0"
     inkscape:zoom="1.350566"
     inkscape:cx="213.24393"
     inkscape:cy="53.681197"
     inkscape:window-width="1366"
     inkscape:window-height="722"
     inkscape:window-x="0"
     inkscape:window-y="0"
     inkscape:window-maximized="1"
     inkscape:current-layer="layer1" />
  <defs
     id="defs2" />
  <g
     inkscape:label="Calque 1"
     inkscape:groupmode="layer"
     id="layer1"
     transform="translate(-88.68586,-135.37478)">
    <path
       id="rect904"
       style="fill:none;stroke:#000000;stroke-width:0.497415"
       d="m 89.045052,135.62349 h 81.576638 v 67.24358 H 89.045052 Z" />
    <path
       id="path1074"
       style="fill:none;stroke:#000000;stroke-width:0.499999"
       d="m 168.67913,199.17661 a 1.2321875,1.2321875 0 0 1 -1.23218,1.23218 1.2321875,1.2321875 0 0 1 -1.23219,-1.23218 1.2321875,1.2321875 0 0 1 1.23219,-1.23219 1.2321875,1.2321875 0 0 1 1.23218,1.23219 z" />
    <path
       id="path1074-3"
       style="fill:none;stroke:#000000;stroke-width:0.499999"
       d="m 93.721964,199.58061 a 1.2321875,1.2321875 0 0 1 -1.232187,1.23219 1.2321875,1.2321875 0 0 1 -1.232188,-1.23219 1.2321875,1.2321875 0 0 1 1.232188,-1.23219 1.2321875,1.2321875 0 0 1 1.232187,1.23219 z" />
    <path
       id="path1074-6"
       style="fill:none;stroke:#000000;stroke-width:0.499999"
       d="m 93.708079,138.76321 a 1.2321875,1.2321875 0 0 1 -1.232188,1.23219 1.2321875,1.2321875 0 0 1 -1.232187,-1.23219 1.2321875,1.2321875 0 0 1 1.232187,-1.23218 1.2321875,1.2321875 0 0 1 1.232188,1.23218 z" />
    <path
       id="path1074-7"
       style="fill:none;stroke:#000000;stroke-width:0.499999"
       d="m 168.02502,138.67776 a 1.2321875,1.2321875 0 0 1 -1.23219,1.23219 1.2321875,1.2321875 0 0 1 -1.23219,-1.23219 1.2321875,1.2321875 0 0 1 1.23219,-1.23218 1.2321875,1.2321875 0 0 1 1.23219,1.23218 z" />
    <path
       id="rect1226"
       style="fill:none;stroke:#000000;stroke-width:0.499999"
       d="m 89.330391,143.56044 h 14.932039 v 15.22837 H 89.330391 Z" />
    <path
       id="rect1228"
       style="fill:none;stroke:#000000;stroke-width:0.499999"
       d="m 88.93586,161.72592 h 6.181325 v 8.39565 H 88.93586 Z" />
    <path
       id="rect1230"
       style="fill:none;stroke:#000000;stroke-width:0.499999"
       d="M 89.074196,176.10339 H 94.4804 v 8.96454 h -5.406204 z" />
    <path
       id="rect1232"
       style="fill:none;stroke:#000000;stroke-width:0.499999"
       d="m 157.55209,144.3842 h 12.90075 v 7.99246 h -12.90075 z" />
    <path
       id="rect1234"
       style="fill:none;stroke:#000000;stroke-width:0.499999"
       d="m 157.51666,154.96614 h 13.19127 v 7.60588 h -13.19127 z" />
  </g>
</svg>
